<?xml version="1.0" encoding="UTF-8" standalone="no"?>
<!-- Created with Inkscape (http://www.inkscape.org/) -->

<svg
   xmlns:dc="http://purl.org/dc/elements/1.1/"
   xmlns:cc="http://creativecommons.org/ns#"
   xmlns:rdf="http://www.w3.org/1999/02/22-rdf-syntax-ns#"
   xmlns:svg="http://www.w3.org/2000/svg"
   xmlns="http://www.w3.org/2000/svg"
   xmlns:sodipodi="http://sodipodi.sourceforge.net/DTD/sodipodi-0.dtd"
   xmlns:inkscape="http://www.inkscape.org/namespaces/inkscape"
   width="96"
   height="96"
   viewBox="0 0 25.399999 25.399999"
   version="1.1"
   id="svg8"
   sodipodi:docname="download.svg"
   inkscape:version="0.92.1 r15371">
  <defs
     id="defs2" />
  <sodipodi:namedview
     id="base"
     pagecolor="#ffffff"
     bordercolor="#666666"
     borderopacity="1.0"
     inkscape:pageopacity="0.0"
     inkscape:pageshadow="2"
     inkscape:zoom="1.979899"
     inkscape:cx="110.57617"
     inkscape:cy="81.476452"
     inkscape:document-units="mm"
     inkscape:current-layer="layer1"
     showgrid="false"
     units="px"
     inkscape:window-width="1920"
     inkscape:window-height="1019"
     inkscape:window-x="0"
     inkscape:window-y="27"
     inkscape:window-maximized="1" />
  <metadata
     id="metadata5">
    <rdf:RDF>
      <cc:Work
         rdf:about="">
        <dc:format>image/svg+xml</dc:format>
        <dc:type
           rdf:resource="http://purl.org/dc/dcmitype/StillImage" />
        <dc:title></dc:title>
      </cc:Work>
    </rdf:RDF>
  </metadata>
  <g
     inkscape:label="Capa 1"
     inkscape:groupmode="layer"
     id="layer1"
     transform="translate(0,-271.60001)">
    <path
       inkscape:connector-curvature="0"
       id="path20"
       style="font-style:normal;font-variant:normal;font-weight:normal;font-stretch:normal;font-size:medium;line-height:1.25;font-family:FontAwesome;-inkscape-font-specification:FontAwesome;letter-spacing:0px;word-spacing:0px;fill:#333333;fill-opacity:1;stroke:none;stroke-width:0.56987047"
       d="m 18.157019,292.19934 q 0.241686,-0.24171 0.241686,-0.57243 0,-0.33072 -0.241686,-0.57239 -0.241687,-0.2417 -0.572415,-0.2417 -0.330728,0 -0.572414,0.2417 -0.241687,0.24167 -0.241687,0.57239 0,0.33072 0.241687,0.57243 0.241686,0.24168 0.572414,0.24168 0.330728,0 0.572415,-0.24168 z m 3.256402,0 q 0.241687,-0.24171 0.241687,-0.57243 0,-0.33072 -0.241687,-0.57239 -0.241686,-0.2417 -0.572414,-0.2417 -0.330728,0 -0.572415,0.2417 -0.241686,0.24167 -0.241686,0.57239 0,0.33072 0.241686,0.57243 0.241687,0.24168 0.572415,0.24168 0.330728,0 0.572414,-0.24168 z m 1.869888,-3.42177 v 4.0705 q 0,0.50881 -0.356169,0.86499 -0.356169,0.35616 -0.864982,0.35616 H 3.3378415 q -0.5088129,0 -0.864982,-0.35616 -0.3561685,-0.35618 -0.3561685,-0.86499 v -4.0705 q 0,-0.50882 0.3561685,-0.86498 0.3561691,-0.35617 0.864982,-0.35617 H 9.252792 l 1.717244,1.72996 q 0.737779,0.71233 1.729964,0.71233 0.992185,0 1.729964,-0.71233 l 1.729964,-1.72996 h 5.90223 q 0.508813,0 0.864982,0.35617 0.356169,0.35616 0.356169,0.86498 z m -4.134105,-7.23786 q 0.216245,0.52152 -0.178084,0.89041 l -5.698705,5.69871 q -0.228966,0.2417 -0.572415,0.2417 -0.343449,0 -0.572414,-0.2417 l -5.6987054,-5.69871 q -0.39433,-0.36889 -0.1780839,-0.89041 0.2162454,-0.49611 0.7504989,-0.49611 h 3.2564034 v -5.6987 q 0,-0.33072 0.241686,-0.57242 0.241686,-0.24169 0.572414,-0.24169 h 3.256403 q 0.330729,0 0.572415,0.24169 0.241686,0.2417 0.241686,0.57242 v 5.6987 h 3.256403 q 0.534253,0 0.750498,0.49611 z" />
  </g>
</svg>
