<?xml version="1.0" encoding="UTF-8" standalone="no"?>
<!-- Created with Inkscape (http://www.inkscape.org/) -->

<svg
   xmlns:dc="http://purl.org/dc/elements/1.1/"
   xmlns:cc="http://creativecommons.org/ns#"
   xmlns:rdf="http://www.w3.org/1999/02/22-rdf-syntax-ns#"
   xmlns:svg="http://www.w3.org/2000/svg"
   xmlns="http://www.w3.org/2000/svg"
   xmlns:sodipodi="http://sodipodi.sourceforge.net/DTD/sodipodi-0.dtd"
   xmlns:inkscape="http://www.inkscape.org/namespaces/inkscape"
   width="16"
   height="16"
   viewBox="0 0 4.2333332 4.2333335"
   version="1.1"
   id="svg8"
   sodipodi:docname="lpause.svg"
   inkscape:version="0.92.1 r15371">
  <defs
     id="defs2" />
  <sodipodi:namedview
     id="base"
     pagecolor="#ffffff"
     bordercolor="#666666"
     borderopacity="1.0"
     inkscape:pageopacity="0.0"
     inkscape:pageshadow="2"
     inkscape:zoom="11.2"
     inkscape:cx="11.138071"
     inkscape:cy="1.9363534"
     inkscape:document-units="mm"
     inkscape:current-layer="layer1"
     showgrid="false"
     units="px"
     inkscape:window-width="1920"
     inkscape:window-height="1019"
     inkscape:window-x="0"
     inkscape:window-y="27"
     inkscape:window-maximized="1" />
  <metadata
     id="metadata5">
    <rdf:RDF>
      <cc:Work
         rdf:about="">
        <dc:format>image/svg+xml</dc:format>
        <dc:type
           rdf:resource="http://purl.org/dc/dcmitype/StillImage" />
        <dc:title></dc:title>
      </cc:Work>
    </rdf:RDF>
  </metadata>
  <g
     inkscape:label="Capa 1"
     inkscape:groupmode="layer"
     id="layer1"
     transform="translate(0,-292.76665)">
    <path
       inkscape:connector-curvature="0"
       id="path121"
       style="font-style:normal;font-variant:normal;font-weight:normal;font-stretch:normal;font-size:medium;line-height:1.25;font-family:FontAwesome;-inkscape-font-specification:FontAwesome;letter-spacing:0px;word-spacing:0px;fill:#000000;fill-opacity:1;stroke:none;stroke-width:0.09224384"
       d="m 3.6979896,293.43377 v 2.89909 q 0,0.0535 -0.039121,0.0926 -0.039121,0.0391 -0.092656,0.0391 H 2.5119974 q -0.053534,0 -0.092656,-0.0391 -0.039121,-0.0391 -0.039121,-0.0926 v -2.89909 q 0,-0.0535 0.039121,-0.0927 0.039121,-0.0391 0.092656,-0.0391 h 1.0542153 q 0.053534,0 0.092656,0.0391 0.039121,0.0391 0.039121,0.0927 z m -1.8448768,0 v 2.89909 q 0,0.0535 -0.039121,0.0926 -0.039121,0.0391 -0.092656,0.0391 H 0.66712062 q -0.0535344,0 -0.0926556,-0.0391 -0.0391213,-0.0391 -0.0391213,-0.0926 v -2.89909 q 0,-0.0535 0.0391213,-0.0927 0.0391213,-0.0391 0.0926556,-0.0391 H 1.7213359 q 0.053534,0 0.092656,0.0391 0.039121,0.0391 0.039121,0.0927 z" />
  </g>
</svg>
